<svg width="134" height="36" viewBox="0 0 134 36" fill="none" xmlns="http://www.w3.org/2000/svg">
<path d="M28.2995 1.01092C27.1119 0.711707 23.0941 0 17.9827 0C12.8692 0 8.85146 0.711707 7.66386 1.01092C6.47412 1.31014 1.54858 2.18 0.525448 9.26502C0.525448 9.26502 0 12.3085 0 18C0 23.6915 0.525448 26.735 0.525448 26.735C1.54858 33.82 6.47412 34.692 7.66172 34.9891C8.85145 35.2883 12.8671 36 17.9806 36C23.0941 36 27.1097 35.2883 28.2995 34.9891C29.4892 34.692 34.4147 33.82 35.4357 26.735C35.4357 26.735 35.9612 23.6915 35.9612 18C35.9612 12.3085 35.4357 9.26502 35.4357 9.26502C34.4147 2.18 29.4892 1.31014 28.2995 1.01092ZM28.842 22.1612V25.1064V25.6856H28.2631H27.3276V29.0774V29.6566H26.7487H23.8481H23.2692V29.0774V25.6856H13.6382C10.3295 25.6856 7.63822 22.9948 7.63822 19.6842V7.19402V6.61482H8.21707H11.3057H11.8845V7.19402V19.3636C11.8845 20.7271 12.7368 21.5778 14.1059 21.582H23.2671V11.1992V10.6179H23.846H26.7466H27.3255V11.1992V21.582H28.261H28.8399V22.1612H28.842Z" fill="white"/>
<path d="M59.0382 10.4683C56.5904 10.4683 54.2857 11.7164 52.9293 13.749C51.5773 11.7164 49.2725 10.4683 46.8226 10.4683C42.7749 10.4683 39.4813 13.7639 39.4791 17.814V25.4312V25.692H39.7397H41.7027H41.9633V25.4312V17.814C41.9633 15.1339 44.1441 12.9539 46.8226 12.9496C49.4926 12.9539 51.6734 15.136 51.6862 17.814V25.4312V25.692H51.9468H53.9183H54.1789V25.4312V17.814C54.1831 15.1382 56.3618 12.9539 59.0403 12.9496C61.7124 12.9539 63.8933 15.136 63.9039 17.814V25.4312V25.692H64.1624H66.1189H66.3795V25.4312V17.814C66.3752 13.7639 63.0816 10.4683 59.0382 10.4683Z" fill="white"/>
<path d="M109.71 10.4683C107.26 10.4683 104.957 11.7164 103.601 13.749C102.245 11.7164 99.9441 10.4683 97.492 10.4683C93.4444 10.4683 90.1528 13.7639 90.1486 17.814V25.4312V25.692H90.4091H92.3721H92.6348V25.4312V17.814C92.6348 15.1339 94.8135 12.9539 97.492 12.9518C100.162 12.9539 102.345 15.136 102.358 17.814V25.4312V25.692H102.616H104.59H104.848V25.4312V17.814C104.853 15.1339 107.033 12.9539 109.71 12.9518C112.382 12.9539 114.563 15.136 114.573 17.814V25.4312V25.692H114.834H116.791H117.051V25.4312V17.814C117.049 13.7639 113.757 10.4683 109.71 10.4683Z" fill="white"/>
<path d="M78.4929 10.4683C74.4474 10.4683 71.1516 13.7639 71.1494 17.814V18.3483C71.1494 22.3985 74.4431 25.692 78.4886 25.692C82.5341 25.692 85.8278 22.3985 85.8321 18.3483V17.814C85.8321 13.7639 82.5405 10.4683 78.4929 10.4683ZM83.3458 18.3462C83.3437 21.0263 81.165 23.2042 78.4886 23.2106C75.8186 23.2042 73.6421 21.0263 73.6314 18.3462V17.8119C73.6378 15.136 75.8165 12.9518 78.4929 12.9475C81.165 12.9518 83.3394 15.1339 83.3479 17.8119V18.3462H83.3458Z" fill="white"/>
<path d="M128.006 16.3906L127.494 16.3799H125.353C124.11 16.3799 123.1 15.8713 123.1 14.6274C123.1 13.392 124.11 12.8791 125.353 12.8748H130.271H130.531V12.6141V10.7269V10.4683H130.271H125.353C122.782 10.4683 120.691 12.0562 120.691 14.6295C120.691 17.2006 122.782 18.7908 125.353 18.7929L127.069 18.8036H128.006C129.247 18.8057 130.256 19.8166 130.258 21.0584C130.258 22.298 129.247 23.3089 128.006 23.3111H122.22H121.962V23.5761V25.4633V25.724H122.22H128.006C130.574 25.724 132.669 23.6316 132.669 21.0605C132.669 18.483 130.574 16.3906 128.006 16.3906Z" fill="white"/>
<path d="M132.78 10.4705C132.086 10.4705 131.539 10.9962 131.539 11.6695C131.539 12.3427 132.086 12.8749 132.774 12.8749C133.46 12.8749 134 12.3406 134 11.6695C134 10.9962 133.46 10.4705 132.78 10.4705ZM132.78 12.6248C132.246 12.6248 131.845 12.2016 131.845 11.6673C131.845 11.1416 132.246 10.7098 132.765 10.7098C133.299 10.7098 133.692 11.1416 133.692 11.6737C133.694 12.2016 133.299 12.6334 132.78 12.6248Z" fill="white"/>
<path d="M133.052 11.7059V11.6909C133.19 11.6482 133.299 11.552 133.299 11.4067C133.299 11.2891 133.248 11.2015 133.175 11.1502C133.094 11.0925 132.992 11.0562 132.765 11.0562C132.569 11.0562 132.415 11.0775 132.306 11.0925V12.2915H132.584V11.817H132.714C132.868 11.817 132.941 11.8747 132.962 12.0008C132.998 12.1462 133.02 12.2487 133.058 12.2936H133.351C133.329 12.2487 133.299 12.1846 133.263 12.0008C133.227 11.8363 133.167 11.7422 133.052 11.7059ZM132.723 11.6183H132.592V11.2742C132.622 11.2677 132.674 11.2592 132.746 11.2592C132.921 11.2592 133.002 11.3319 133.002 11.443C133 11.567 132.876 11.6183 132.723 11.6183Z" fill="white"/>
</svg>
