<svg width="47" height="71" viewBox="0 0 47 71" fill="none" xmlns="http://www.w3.org/2000/svg">
<path d="M30.8937 12.3071C36.4208 16.0347 40.2368 23.8234 40.2368 32.078C40.2368 36.9624 38.1119 41.875 34.7378 45.3817C34.5691 45.5584 34.4285 45.7553 34.316 45.9722C32.5808 49.2901 28.1944 52.8369 23.7478 52.8369C19.3051 52.8369 14.9228 49.2981 13.1875 45.9842C13.071 45.7593 12.9264 45.5544 12.7537 45.3737C9.37955 41.871 7.25867 36.9584 7.25867 32.078C7.25867 23.8274 11.0666 16.0428 16.5898 12.3111" stroke="#17A7E0" stroke-miterlimit="10"/>
<path d="M29.2065 34.0459C29.3953 35.9177 29.6925 37.7012 30.0902 39.3561" stroke="#17A7E0" stroke-miterlimit="10"/>
<path d="M31.6834 12.8315C30.0337 17.7783 28.9922 24.9598 28.9922 32.9499C28.9922 33.4219 28.9954 33.894 29.0019 34.3611" stroke="#17A7E0" stroke-miterlimit="10"/>
<path d="M18.2782 34.0459C18.0894 35.9177 17.7922 37.7012 17.3945 39.3602" stroke="#17A7E0" stroke-miterlimit="10"/>
<path d="M15.5391 12.8315C17.1887 17.776 18.2303 24.9541 18.2303 32.9405C18.2303 33.4174 18.227 33.8892 18.2205 34.3611" stroke="#17A7E0" stroke-miterlimit="10"/>
<path d="M17.8848 50.9446C17.8848 50.9446 16.25 52.7963 16.25 54.3549C16.25 55.9094 17.0614 57.7611 17.5434 59.2353C17.7282 59.8057 18.3468 60.4283 18.9373 60.5568C19.8812 60.7657 21.4679 61.0067 23.7454 61.0067C26.0229 61.0067 27.6136 60.7657 28.5535 60.5568C29.14 60.4283 29.7586 59.8057 29.9474 59.2353C30.4254 57.7611 31.2408 55.9134 31.2408 54.3549C31.2408 52.8004 29.606 50.9446 29.606 50.9446" stroke="#17A7E0" stroke-miterlimit="10"/>
<path d="M17.1597 58.0342C17.1597 58.0342 8.82077 58.5965 6.05719 60.6572C5.81216 60.8379 6.05719 61.5128 6.05719 61.5128C6.05719 61.5128 1 63.2641 1 65.7907C1 67.8152 1.85558 70.0325 23.7433 70.0325C45.631 70.0325 46.4866 67.8152 46.4866 65.7907C46.4866 63.2641 41.4294 61.5128 41.4294 61.5128C41.4294 61.5128 41.6744 60.8379 41.4294 60.6572C38.6658 58.5965 30.3269 58.0342 30.3269 58.0342" stroke="#17A7E0" stroke-miterlimit="10"/>
<path d="M23.7434 13.9013C25.5559 13.9013 27.0252 12.1605 27.0252 10.013C27.0252 7.8656 25.5559 6.12476 23.7434 6.12476C21.931 6.12476 20.4617 7.8656 20.4617 10.013C20.4617 12.1605 21.931 13.9013 23.7434 13.9013Z" stroke="#17A7E0" stroke-miterlimit="10"/>
<path d="M26.4814 12.146L28.8513 12.624C30.4821 12.9534 32.0728 11.897 32.4022 10.2661C32.7315 8.63529 31.6751 7.04462 30.0443 6.71524L27.2887 6.1569C26.5336 6.00426 25.7864 6.14887 25.1719 6.51038" stroke="#17A7E0" stroke-miterlimit="10"/>
<path d="M20.9996 12.146L18.6257 12.624C16.9948 12.9534 15.4042 11.897 15.0748 10.2661C14.7454 8.63529 15.8018 7.04462 17.4327 6.71524L20.1882 6.1569C20.9434 6.00426 21.6905 6.14887 22.3051 6.51038" stroke="#17A7E0" stroke-miterlimit="10"/>
<path d="M25.1938 6.51058L24.527 1.35698C24.5029 1.01154 24.2016 0.734375 23.8602 0.734375H23.6272C23.2818 0.734375 22.9845 1.01154 22.9564 1.35698L22.2936 6.51058" stroke="#17A7E0" stroke-miterlimit="10"/>
<path d="M12.7461 45.3773C12.7461 42.915 13.7302 39.3159 16.4295 39.3159C18.1367 39.3159 20.3258 40.0349 23.7442 40.0349C27.1625 40.0349 29.3517 39.3159 31.0588 39.3159C33.7541 39.3159 34.7342 42.915 34.7342 45.3773" stroke="#17A7E0" stroke-miterlimit="10"/>
</svg>
