<svg width="71" height="59" viewBox="0 0 71 59" fill="none" xmlns="http://www.w3.org/2000/svg">
<path d="M1.15225 10.9985C0.702346 13.5233 1.0619 29.7362 4.83434 36.6698C7.30413 41.2106 11.6997 43.8333 15.858 46.6143C18.8436 48.6115 20.8164 50.9817 22.9304 53.8475C25.3456 57.1221 31.5201 60.6417 31.4617 53.8569C31.4165 48.7245 31.2226 43.7353 30.7144 40.798C29.8729 35.92 18.0116 24.9072 16.3004 22.8968C14.5892 20.8865 11.2479 22.8441 12.5129 25.0033C13.7779 27.1625 19.5683 34.2544 19.6436 35.6694C19.7189 37.0844 15.4213 34.13 12.5957 30.5558C9.77015 26.9816 8.98704 18.6312 7.58085 13.024C6.32525 8.02538 2.11984 5.56282 1.15225 10.9985Z" stroke="#17A7E0" stroke-miterlimit="10"/>
<path d="M69.5833 10.9985C70.0332 13.5233 69.6737 29.7362 65.9012 36.6698C63.4314 41.2106 59.0359 43.8333 54.8775 46.6143C51.892 48.6115 49.9192 50.9817 47.8052 53.8475C45.39 57.1221 39.2155 60.6417 39.2738 53.8569C39.319 48.7245 39.5129 43.7353 40.0212 40.798C40.8626 35.92 52.724 24.9072 54.4352 22.8968C56.1463 20.8865 59.4877 22.8441 58.2227 25.0033C56.9577 27.1625 51.1672 34.2544 51.0919 35.6694C51.0166 37.0844 55.3143 34.13 58.1399 30.5558C60.9654 26.9816 61.7485 18.6312 63.1547 13.024C64.4084 8.02538 68.6157 5.56282 69.5833 10.9985Z" stroke="#17A7E0" stroke-miterlimit="10"/>
<path d="M35.0191 4.00669C36.6286 1.52152 39.5953 0.558724 42.0896 0.760326C48.6763 1.29354 50.9108 8.64165 48.121 13.5875C46.6207 16.2498 44.4615 18.5767 42.1065 20.6681C40.1337 22.4184 35.0473 26.1321 35.0322 26.1189H35.068C35.053 26.1321 29.9666 22.4184 27.9937 20.6681C25.6388 18.5786 23.4815 16.2498 21.9793 13.5875C19.1932 8.64165 21.4258 1.29165 28.0126 0.760326C30.5087 0.558724 33.4755 1.52152 35.0831 4.00669H35.0191Z" stroke="#17A7E0" stroke-miterlimit="10" stroke-linecap="round" stroke-linejoin="round"/>
</svg>
